# xmcd
#
# Track frame offsets: 
#        150
#        3943
#        20376
#        37166
#        49142
#        62179
#        73955
#        77147
#        90525
#        102607
#        114076
#        128198
#        139249
#        151325
#        162183
#        174715
#        188426
#        201015
#        214321
#        230432
#        243227
#
# Disc length: 3257 seconds
#
# Revision: 0
# Processed by: cddbd v1.5.2PL0 Copyright (c) Steve Scherf et al.
# Submitted via: ExactAudioCopy v0.99pb4
#
DISCID=220cb715
DTITLE=Billy Mata and The Texas Tradition - This Is Tommy Duncan Vol. I
DYEAR=2008
DGENRE=Country
TTITLE0=Introduction (Larry Scott)
TTITLE1=Basin Street Blues
TTITLE2=Black rider
TTITLE3=San Antonio Rose
TTITLE4=A Maiden's Prayer
TTITLE5=I Found A Dream
TTITLE6=Interlude (Larry Scott)
TTITLE7=Stay All Night
TTITLE8=New Spanish Two Step
TTITLE9=Ten Years
TTITLE10=Closed For Repairs
TTITLE11=Dinah
TTITLE12=Bluer Than Blue
TTITLE13=Interview (Billy Mata and Herb Remington)
TTITLE14=Misery
TTITLE15=Deep Water
TTITLE16=Interview (Billy Mata and Johnny Gimble)
TTITLE17=Cotton Patch Blues
TTITLE18=Sweet Patch Blues
TTITLE19=Ride On! (My Prarie Pinto)
TTITLE20=Epilogue (Glynn Duncan)
EXTD=
EXTT0=
EXTT1=
EXTT2=
EXTT3=
EXTT4=
EXTT5=
EXTT6=
EXTT7=
EXTT8=
EXTT9=
EXTT10=
EXTT11=
EXTT12=
EXTT13=
EXTT14=
EXTT15=
EXTT16=
EXTT17=
EXTT18=
EXTT19=
EXTT20=
PLAYORDER=
